<?xml version="1.0" encoding="UTF-8"?>
<svg width="421px" height="448px" viewBox="0 0 421 448" version="1.1" xmlns="http://www.w3.org/2000/svg" xmlns:xlink="http://www.w3.org/1999/xlink">
    <title>Group</title>
    <g id="Page-1" stroke="none" stroke-width="1" fill="none" fill-rule="evenodd">
        <g id="Group" transform="translate(0.5905, 0.744)" fill-rule="nonzero">
            <path d="M0,143.844 L127.1715,148.451 L131.8315,0 L203.9355,109.455 L260.8165,32.654 L263.2665,124.166 L370.9235,116.645 L297.6195,185.305 L381.7695,194.149 L321.5465,249.59 L419.8255,332.681 L284.9475,300.394 L284.6325,377.266 L215.9835,304.011 L132.4225,446.27 L122.4895,297.144 L117.2865,296.057 C87.7525,303.874 55.8658,319.554 26.4173,325.804 C24.5757,326.194 23.4658,327.514 21.4891,325.797 L93.7825,222.385 L0,143.844 Z" id="Path" fill="#F37024"></path>
            <polygon id="Path" fill="#FAA624" points="42.4801 160.728 123.3995 218.947 56.2308 302.007 135.5965 275.681 142.1035 406.795 210.5905 278.343 270.0335 347.096 270.1605 283.221 381.6585 313.782 299.1735 245.098 348.9465 204.144 273.3395 194.61 341.2615 126.885 250.7525 137.524 251.7405 62.593 194.8865 144.317 145.1735 45.954 148.7035 158.304"></polygon>
            <polygon id="Path" fill="#FEDD2E" points="81.9585 173.712 147.2195 217.491 94.8865 273.568 150.4525 258.381 156.3035 349.984 207.1895 252.076 253.4175 304.444 249.9315 258.464 333.5505 288.35 274.8505 241.261 323.3495 212.801 253.3205 201.899 304.6525 144.522 238.4985 152.333 238.7385 98.797 194.3125 165.363 159.8915 105.704 162.5035 176.494"></polygon>
            <polygon id="Path" fill="#FFF5CA" points="110.9545 183.086 162.9985 215.444 130.2735 248.445 170.4355 240.412 170.1025 301.815 203.1615 233.68 241.6635 277.61 236.0845 246.708 286.4555 264.227 247.7245 234.486 295.7715 218.842 239.1965 207.228 274.4925 162.396 227.9235 172.185 232.2585 123.466 193.0735 181.13 168.6285 143.319 174.0855 184.824"></polygon>
        </g>
    </g>
</svg>